<?xml version="1.0" encoding="UTF-8" standalone="no"?>
<!-- Created with Inkscape (http://www.inkscape.org/) -->

<svg
   width="1404"
   height="1872"
   version="1.1"
   viewBox="0 0 371.48 495.3"
   id="svg7"
   sodipodi:docname="flashcard.svg"
   inkscape:version="1.3 (0e150ed6c4, 2023-07-21)"
   xmlns:inkscape="http://www.inkscape.org/namespaces/inkscape"
   xmlns:sodipodi="http://sodipodi.sourceforge.net/DTD/sodipodi-0.dtd"
   xmlns:xlink="http://www.w3.org/1999/xlink"
   xmlns="http://www.w3.org/2000/svg"
   xmlns:svg="http://www.w3.org/2000/svg">
  <sodipodi:namedview
     id="namedview7"
     pagecolor="#ffffff"
     bordercolor="#666666"
     borderopacity="1.0"
     inkscape:showpageshadow="2"
     inkscape:pageopacity="0.0"
     inkscape:pagecheckerboard="0"
     inkscape:deskcolor="#d1d1d1"
     inkscape:zoom="0.43510302"
     inkscape:cx="1197.4176"
     inkscape:cy="636.63084"
     inkscape:window-width="752"
     inkscape:window-height="1036"
     inkscape:window-x="0"
     inkscape:window-y="0"
     inkscape:window-maximized="1"
     inkscape:current-layer="Paper_background" />
  <defs
     id="defs4">
    <pattern
       id="pattern29"
       x="-6"
       y="-18.29999924"
       patternTransform="matrix(0,-1.2153,1.2153,0,0,0)"
       preserveAspectRatio="xMidYMid"
       xlink:href="#Grid1" />
    <pattern
       id="Grid1"
       width="20"
       height="20"
       fill="#cacaca"
       patternUnits="userSpaceOnUse"
       preserveAspectRatio="xMidYMid"
       style="fill:#000000"
       inkscape:label="Grid1">
      <rect
         x="9.5"
         width="1"
         height="20"
         id="rect1" />
      <rect
         transform="rotate(-90)"
         x="-10.5"
         width="1"
         height="20"
         id="rect2" />
    </pattern>
    <pattern
       id="pattern29-3"
       x="-6"
       y="-18.3"
       patternTransform="matrix(1.2153,0,0,1.2153,47.214037,182.10624)"
       preserveAspectRatio="xMidYMid"
       xlink:href="#Grid1-6" />
    <pattern
       id="Grid1-6"
       width="20"
       height="20"
       fill="#cacaca"
       patternUnits="userSpaceOnUse"
       preserveAspectRatio="xMidYMid">
      <rect
         x="9.5"
         width="1"
         height="20"
         id="rect3" />
      <rect
         transform="rotate(-90)"
         x="-10.5"
         width="1"
         height="20"
         id="rect4" />
    </pattern>
  </defs>
  <g
     id="Paper_background">
    <rect
       x="64.809"
       y="73.199"
       width="241.86"
       height="164.41"
       fill="url(#pattern29)"
       stroke="#000"
       stroke-linecap="round"
       stroke-width=".32452"
       id="rect5"
       style="fill:none" />
    <rect
       x="64.810028"
       y="257.71622"
       width="241.86"
       height="164.41"
       fill="url(#pattern29-3)"
       stroke="#000000"
       stroke-linecap="round"
       stroke-width="0.32452"
       id="rect6"
       style="fill:none" />
    <path
       transform="rotate(-90)"
       d="m-95.085 58.692c0.97965 0 1.0142 0.26508 1.0488 0.78372 0.06915 0.06915 0.31118 0.06915 0.38034 0-0.01153-0.28813-0.02305-0.62237-0.02305-1.0142 0-0.39186 0.01152-0.69152 0.02305-0.99118-0.06915-0.06915-0.31118-0.06915-0.38034 0-0.03458 0.63389-0.06915 0.78372-1.0488 0.78372h-1.0719v-2.0746c0-0.62237 0.1383-0.73762 0.64542-0.73762h0.51864c1.2217 0 1.5098 0.46101 1.7634 1.2563 0.1383 0 0.26508-0.02305 0.35728-0.05763-0.05763-0.47254-0.23051-1.579-0.25356-1.6712 0-0.02305-0.01153-0.03458-0.0461-0.03458-0.19593 0.03458-0.25356 0.0461-0.54169 0.0461h-2.939c-0.36881 0-1.0258-0.01153-1.4868-0.02305-0.06915 0.06915-0.06915 0.31118 0 0.38034 0.80677 0.03458 1.0027 0.0922 1.0027 1.0488v4.6216c0 0.9566-0.19593 1.0142-1.0027 1.0488-0.06915 0.06915-0.06915 0.31118 0 0.38034 0.40339-0.01152 0.97965-0.02305 1.4983-0.02305 0.51864 0 1.0834 0.01153 1.4868 0.02305 0.06915-0.06915 0.06915-0.31118 0-0.38034-0.80677-0.03458-1.0027-0.0922-1.0027-1.0488v-2.3166zm4.3566-0.40338c-0.02305-0.46101-0.03458-0.76067-0.0922-0.87592-0.02305-0.05763-0.0461-0.0922-0.1383-0.0922-0.32271 0.12678-0.62237 0.23051-1.4176 0.33423-0.02305 0.06915 0 0.25356 0.02305 0.32271 0.62237 0.05763 0.74914 0.11525 0.74914 0.78372v2.2474c0 0.9566-0.1383 1.0027-0.85287 1.0488-0.06915 0.06915-0.06915 0.31118 0 0.38034 0.40338-0.01152 0.85287-0.02305 1.3139-0.02305s0.99118 0.01153 1.3946 0.02305c0.06915-0.06915 0.06915-0.31118 0-0.38034-0.80677-0.05763-0.94507-0.0922-0.94507-1.0488v-1.602c0-0.29966 0.1383-0.56474 0.27661-0.7722 0.12678-0.1844 0.39186-0.56474 0.53016-0.56474 0.10373 0 0.20746 0.02305 0.29966 0.14983 0.08068 0.11525 0.21898 0.26508 0.41491 0.26508 0.27661 0 0.54169-0.28813 0.54169-0.57626 0-0.21898-0.20746-0.55321-0.69152-0.55321-0.54169 0-1.0142 0.50711-1.2793 0.9566-0.06915 0.12678-0.12678 0.03458-0.12678-0.02305zm2.6393 1.7634c0 1.1756 0.78372 2.4779 2.4203 2.4779 0.73762 0 1.3024-0.26508 1.6942-0.64542 0.51864-0.50711 0.74914-1.2332 0.74914-1.9362 0-1.1986-0.65694-2.5932-2.4203-2.5932-0.76067 0-1.383 0.31118-1.8095 0.80677-0.41491 0.49559-0.63389 1.1641-0.63389 1.8901zm2.2705-2.2935c0.99118 0 1.602 0.89897 1.602 2.5586 0 1.4522-0.74914 1.8095-1.2908 1.8095-1.1986 0-1.5905-1.4522-1.5905-2.3396 0-1.0027 0.24203-2.0285 1.2793-2.0285zm5.1864 0.53016c-0.06915 0.08068-0.1383 0.10373-0.1383 0-0.01153-0.31118-0.03458-0.76067-0.0922-0.87592-0.02305-0.05763-0.0461-0.0922-0.1383-0.0922-0.32271 0.12678-0.62237 0.23051-1.4176 0.33423-0.02305 0.06915 0 0.25356 0.02305 0.32271 0.62237 0.05763 0.74914 0.11525 0.74914 0.78372v2.2474c0 0.94507-0.11525 0.99118-0.80677 1.0488-0.06915 0.06915-0.06915 0.31118 0 0.38034 0.34576-0.01152 0.80677-0.02305 1.2678-0.02305s0.80677 0.01153 1.1525 0.02305c0.06915-0.06915 0.06915-0.31118 0-0.38034-0.58779-0.05763-0.70304-0.10373-0.70304-1.0488v-1.8902c0-0.24203 0.10373-0.38033 0.19593-0.48406 0.43796-0.42644 0.9566-0.67999 1.4061-0.67999 0.23051 0 0.47254 0.14983 0.61084 0.41491 0.11525 0.23051 0.1383 0.54169 0.1383 0.88745v1.7518c0 0.94507-0.11525 0.99118-0.71457 1.0488-0.05763 0.06915-0.05763 0.31118 0 0.38034 0.34576-0.01152 0.71457-0.02305 1.1756-0.02305s0.87592 0.01153 1.2217 0.02305c0.05763-0.06915 0.05763-0.31118 0-0.38034-0.64542-0.05763-0.7722-0.10373-0.7722-1.0488v-1.7173c0-0.63389-0.0461-1.1871-0.31118-1.5444-0.19593-0.25356-0.55321-0.39186-0.9566-0.39186-0.56474 0-1.2102 0.14983-1.8902 0.93355zm4.6216-0.8183c-0.16135 0-0.20746 0.1383-0.20746 0.23051v0.14983c0 0.05763 0.01153 0.06915 0.05763 0.06915h0.67999v3.4691c0 0.8183 0.35728 1.141 0.88745 1.141s1.1064-0.25356 1.5559-0.76067c-0.02305-0.11525-0.0922-0.1844-0.20746-0.19593-0.29966 0.23051-0.64542 0.32271-0.94508 0.32271-0.31118 0-0.38034-0.34576-0.38034-1.0603v-2.9159h1.1986c0.11525 0 0.27661-0.0461 0.27661-0.14983v-0.23051c0-0.0461-0.03458-0.06915-0.0922-0.06915h-1.383v-0.44949c0-0.74914 0.0461-1.2102 0.0461-1.2102 0-0.06915-0.03458-0.10373-0.0922-0.10373-0.0461 0-0.14983 0.0461-0.25356 0.10373-0.12678 0.06915-0.24203 0.12678-0.39186 0.16136-0.1383 0.0461-0.25356 0.08068-0.25356 0.16135 0 0.1383 0.03458 0.05763 0.03458 1.3369z"
       stroke-width=".57717"
       aria-label="Front"
       id="path6" />
    <path
       transform="rotate(-90)"
       d="m-278.56 54.981c-0.41491 0-1.0373-0.01153-1.4868-0.02305-0.0692 0.06915-0.0692 0.31118 0 0.38034 0.80677 0.03458 1.0027 0.0922 1.0027 1.0488v4.6216c0 0.9566-0.19593 1.0142-1.0027 1.0488-0.0692 0.06915-0.0692 0.31118 0 0.38034 0.44948-0.01152 1.0718-0.02305 1.4983-0.02305 0.41492 0 0.71457 0.02305 1.6827 0.02305 2.2935 0 2.9044-1.1525 2.9044-2.1437 0-1.1064-0.77219-1.7403-1.7749-2.0285v-0.02305c0.57626-0.28813 1.0949-0.88745 1.0949-1.5098 0-0.7722-0.33423-1.7749-2.4779-1.7749-0.40338 0-1.0258 0.02305-1.4407 0.02305zm0.49559 3.6074h0.79524c1.579 0 2.2359 0.88745 2.2359 1.9247 0 0.84135-0.32271 1.5444-2.0746 1.5444-0.80677 0-0.9566-0.29966-0.9566-1.0027zm0-2.5125c0-0.61084 0-0.72609 1.0027-0.72609 0.64542 0 1.4868 0.34576 1.4868 1.5213 0 0.97965-0.67999 1.3254-1.6366 1.3254h-0.85287zm7.9524 5.7857c0.0692 0.35728 0.19593 0.66847 0.77219 0.66847 0.43796 0 0.85287-0.19593 1.0949-0.42644-0.0231-0.1383-0.0692-0.24203-0.19593-0.31118-0.0807 0.06915-0.27661 0.1844-0.42644 0.1844-0.33423 0-0.34576-0.44949-0.34576-0.97965v-1.6942c0-1.6366-0.89897-1.9478-1.7403-1.9478-0.94507 0-1.9017 0.62237-1.9017 1.2793 0 0.27661 0.1383 0.41491 0.40338 0.41491 0.33423 0 0.54169-0.24203 0.54169-0.39186 0-0.08068-0.0115-0.16135-0.0346-0.20746-0.0115-0.03458-0.023-0.10373-0.023-0.23051 0-0.35728 0.48407-0.48406 0.92203-0.48406 0.39186 0 0.93355 0.19593 0.93355 1.4983 0 0.08068-0.0346 0.12678-0.0691 0.1383l-0.99118 0.24203c-1.1064 0.27661-1.9017 0.88745-1.9017 1.6712 0 0.94507 0.64542 1.2447 1.4522 1.2447 0.40339 0 0.74915-0.0922 1.2563-0.48406l0.23051-0.1844zm0-2.1322v1.5213c0 0.14983-0.0691 0.23051-0.16136 0.29966-0.29966 0.24203-0.69152 0.50711-1.0142 0.50711-0.57627 0-0.82983-0.46101-0.82983-0.8183 0-0.51864 0.24204-1.0488 1.0949-1.2678zm6.4772 1.6366c-0.0461-0.10373-0.1383-0.14983-0.24203-0.16135-0.39186 0.50711-0.88745 0.76067-1.383 0.76067-0.84135 0-1.5444-0.85287-1.5444-2.2013 0-1.2678 0.55321-2.0285 1.3139-2.0285 0.67999 0 0.7722 0.40339 0.8183 0.80677 0.0346 0.31118 0.19593 0.41491 0.43796 0.41491s0.56474-0.14983 0.56474-0.50711c0-0.63389-0.65694-1.0949-1.7634-1.0949-1.141 0-2.3627 1.0258-2.3627 2.6623 0 1.4868 0.82982 2.5125 2.282 2.5125 0.69152 0 1.3024-0.21898 1.8786-1.1641zm1.3369-0.35728c0 0.9566-0.12677 1.0027-0.77219 1.0488-0.0692 0.06915-0.0692 0.31118 0 0.38034 0.38033-0.01152 0.77219-0.02305 1.2332-0.02305 0.40338 0 0.78372 0.01153 1.0488 0.02305 0.0691-0.06915 0.0691-0.31118 0-0.38034-0.47254-0.0461-0.59932-0.0922-0.59932-1.0488v-1.0027c0.21898 0.01152 0.38034 0.02305 0.49559 0.05763 0.12678 0.0922 0.23051 0.19593 0.36881 0.38034l0.84135 1.1295c0.33423 0.44949 0.47253 0.66847 0.48406 0.80677 0 0.03458 0.0115 0.05763 0.0461 0.05763 0.23051-0.01152 0.48406-0.02305 0.71457-0.02305 0.35728 0 0.71457 0.01153 0.94507 0.02305 0.0692-0.06915 0.0692-0.31118 0-0.38034-0.39186-0.0461-0.67999-0.0922-0.99117-0.48406l-1.5213-1.9132c-0.0461-0.05763-0.0807-0.10373-0.0807-0.16136 0-0.0461 0-0.06915 0.0461-0.11525l1.0142-1.0488c0.34576-0.36881 0.74914-0.46101 1.2102-0.50711 0.0691-0.06915 0.0691-0.31118 0-0.38034-0.26509 0.01153-0.58779 0.02305-1.0027 0.02305-0.43796 0-0.86439-0.01153-1.1295-0.02305-0.0692 0.06915-0.0692 0.31118 0 0.38034 0.64542 0.0461 0.36881 0.44949 0.26509 0.58779-0.26509 0.33423-0.62237 0.72609-0.92203 0.94508-0.25355 0.1844-0.56474 0.32271-0.78372 0.35728v-4.0223c0-0.74914 0.0461-1.2102 0.0461-1.2102 0-0.08068-0.0461-0.11525-0.14983-0.11525-0.28813 0.11525-1.1525 0.27661-1.6135 0.31118-0.0231 0.0922 0 0.27661 0.0691 0.34576h0.10373c0.50712 0.03458 0.63389 0.03458 0.63389 0.94508z"
       stroke-width=".57717"
       aria-label="Back"
       id="path7" />
    <path
       id="path9-26"
       style="fill:none;stroke:#000000;stroke-width:0.26458689;stroke-linecap:butt;stroke-linejoin:miter;stroke-opacity:1;stroke-dasharray:none"
       d="M 295.14668,257.69002 V 422.10001 M 64.810031,414.736 H 306.66997 M 64.81003,390.5033 H 306.66997 M 64.810031,366.27061 H 306.66997 M 64.810031,342.03791 H 306.66997 M 64.810031,317.80521 H 306.66997 M 64.810031,293.57252 H 306.66997 M 64.81,269.33982 h 241.86 m -35.81077,-11.6498 V 422.10001 M 246.57177,257.69002 V 422.10001 M 222.28432,257.69002 V 422.10001 M 197.99686,257.69002 V 422.10001 M 173.70941,257.69002 V 422.10001 M 149.42195,257.69002 V 422.10001 M 125.1345,257.69002 V 422.10001 M 100.84704,257.69002 V 422.10001 M 76.55959,257.43972 v 164.66029" />
    <path
       id="path9-26-1"
       style="fill:none;stroke:#000000;stroke-width:0.26458689;stroke-linecap:butt;stroke-linejoin:miter;stroke-opacity:1;stroke-dasharray:none"
       d="M 295.14565,73.339805 V 237.74978 M 64.808998,230.38577 H 306.66894 M 64.808997,206.15307 H 306.66894 M 64.808998,181.92038 H 306.66894 M 64.808998,157.68768 H 306.66894 M 64.808998,133.45498 H 306.66894 M 64.808998,109.22229 H 306.66894 M 64.808967,84.989605 H 306.66897 M 270.8582,73.339805 V 237.74978 M 246.57074,73.339805 V 237.74978 M 222.28329,73.339805 V 237.74978 M 197.99583,73.339805 V 237.74978 M 173.70838,73.339805 V 237.74978 M 149.42092,73.339805 V 237.74978 M 125.13347,73.339805 V 237.74978 M 100.84601,73.339805 V 237.74978 M 76.558557,73.089505 V 237.74978" />
  </g>
</svg>
